<?xml version="1.0" standalone="no"?>
<!DOCTYPE svg PUBLIC "-//W3C//DTD SVG 20010904//EN"
 "http://www.w3.org/TR/2001/REC-SVG-20010904/DTD/svg10.dtd">
<svg version="1.0" xmlns="http://www.w3.org/2000/svg"
 width="200.000000pt" height="200.000000pt" viewBox="0 0 200.000000 200.000000"
 preserveAspectRatio="xMidYMid meet">
<metadata>
Created by potrace 1.15, written by Peter Selinger 2001-2017
</metadata>
<g transform="translate(0.000000,200.000000) scale(0.100000,-0.100000)"
fill="#000000" stroke="none">
<path d="M50 1000 l0 -590 930 0 930 0 0 590 0 590 -930 0 -930 0 0 -590z
m650 475 c-129 -63 -222 -130 -322 -232 -96 -99 -183 -226 -234 -341 l-33 -77
-1 348 0 347 342 0 342 0 -94 -45z m460 -475 l0 -520 -520 0 -520 0 0 48 c0
73 34 221 73 317 98 239 280 438 507 554 142 73 298 118 413 120 l47 1 0 -520z
m243 485 c230 -80 403 -288 436 -526 l8 -59 -314 0 -313 0 0 311 0 312 57 -7
c31 -4 88 -17 126 -31z m447 -142 l-1 -178 -32 60 c-40 75 -182 220 -257 263
l-55 32 173 0 172 0 0 -177z m-14 -549 c-19 -138 -163 -283 -308 -309 l-38 -7
0 181 0 181 176 0 177 0 -7 -46z m-416 -220 c0 -94 0 -95 -22 -89 -58 17 -109
58 -138 108 -16 29 -30 58 -30 65 0 9 26 12 95 12 l95 0 0 -96z"/>
</g>
</svg>
